<mxfile host="65bd71144e">
    <diagram id="_XKyJIZR2AQzuqYSWQ7O" name="第 1 页">
        <mxGraphModel dx="1271" dy="748" grid="1" gridSize="10" guides="1" tooltips="1" connect="1" arrows="1" fold="1" page="1" pageScale="1" pageWidth="827" pageHeight="1169" background="#ffffff" math="0" shadow="0">
            <root>
                <mxCell id="0"/>
                <mxCell id="1" parent="0"/>
                <mxCell id="11" value="" style="edgeStyle=none;html=1;fontFamily=Comic Sans MS;fontColor=#000000;strokeColor=#000000;" edge="1" parent="1" source="2" target="9">
                    <mxGeometry relative="1" as="geometry"/>
                </mxCell>
                <mxCell id="2" value="Producer" style="ellipse;whiteSpace=wrap;html=1;fillColor=#fad7ac;strokeColor=#b46504;fontFamily=Comic Sans MS;fontColor=#000000;" vertex="1" parent="1">
                    <mxGeometry x="40" y="210" width="120" height="80" as="geometry"/>
                </mxCell>
                <mxCell id="3" value="Exchange" style="ellipse;whiteSpace=wrap;html=1;aspect=fixed;fillColor=#b1ddf0;strokeColor=#10739e;fontFamily=Comic Sans MS;fontColor=#000000;" vertex="1" parent="1">
                    <mxGeometry x="220" y="210" width="80" height="80" as="geometry"/>
                </mxCell>
                <mxCell id="4" value="" style="shape=cylinder3;whiteSpace=wrap;html=1;boundedLbl=1;backgroundOutline=1;size=15;fillColor=#fff2cc;gradientColor=#ffd966;strokeColor=#d6b656;fontFamily=Comic Sans MS;fontColor=#000000;" vertex="1" parent="1">
                    <mxGeometry x="360" y="210" width="60" height="80" as="geometry"/>
                </mxCell>
                <mxCell id="5" value="" style="shape=cylinder3;whiteSpace=wrap;html=1;boundedLbl=1;backgroundOutline=1;size=15;fillColor=#fff2cc;gradientColor=#ffd966;strokeColor=#d6b656;fontFamily=Comic Sans MS;fontColor=#000000;" vertex="1" parent="1">
                    <mxGeometry x="420" y="210" width="60" height="80" as="geometry"/>
                </mxCell>
                <mxCell id="6" value="" style="shape=cylinder3;whiteSpace=wrap;html=1;boundedLbl=1;backgroundOutline=1;size=15;fillColor=#fff2cc;gradientColor=#ffd966;strokeColor=#d6b656;fontFamily=Comic Sans MS;fontColor=#000000;" vertex="1" parent="1">
                    <mxGeometry x="480" y="210" width="60" height="80" as="geometry"/>
                </mxCell>
                <mxCell id="7" value="" style="shape=cylinder3;whiteSpace=wrap;html=1;boundedLbl=1;backgroundOutline=1;size=15;fillColor=#fff2cc;gradientColor=#ffd966;strokeColor=#d6b656;fontFamily=Comic Sans MS;fontColor=#000000;" vertex="1" parent="1">
                    <mxGeometry x="540" y="210" width="60" height="80" as="geometry"/>
                </mxCell>
                <mxCell id="8" value="Consumer" style="ellipse;whiteSpace=wrap;html=1;fillColor=#d0cee2;strokeColor=#56517e;fontFamily=Comic Sans MS;fontColor=#000000;" vertex="1" parent="1">
                    <mxGeometry x="670" y="210" width="120" height="80" as="geometry"/>
                </mxCell>
                <mxCell id="12" value="" style="edgeStyle=none;html=1;fontFamily=Comic Sans MS;fontColor=#000000;strokeColor=#000000;" edge="1" parent="1" source="9" target="8">
                    <mxGeometry relative="1" as="geometry"/>
                </mxCell>
                <mxCell id="9" value="" style="rounded=1;whiteSpace=wrap;html=1;fontFamily=Comic Sans MS;fillColor=none;strokeColor=#000000;" vertex="1" parent="1">
                    <mxGeometry x="203.5" y="150" width="420" height="200" as="geometry"/>
                </mxCell>
                <mxCell id="10" value="Queue" style="text;html=1;align=center;verticalAlign=middle;resizable=0;points=[];autosize=1;strokeColor=none;fillColor=none;fontFamily=Comic Sans MS;fontColor=#000000;" vertex="1" parent="1">
                    <mxGeometry x="445" y="180" width="50" height="20" as="geometry"/>
                </mxCell>
                <mxCell id="13" value="" style="endArrow=classic;html=1;fontFamily=Comic Sans MS;fontColor=#000000;strokeColor=#000000;entryX=0;entryY=0.5;entryDx=0;entryDy=0;entryPerimeter=0;" edge="1" parent="1" target="4">
                    <mxGeometry width="50" height="50" relative="1" as="geometry">
                        <mxPoint x="300" y="250" as="sourcePoint"/>
                        <mxPoint x="350" y="200" as="targetPoint"/>
                    </mxGeometry>
                </mxCell>
            </root>
        </mxGraphModel>
    </diagram>
</mxfile>